<svg width="24" height="25" viewBox="0 0 24 25" fill="none" xmlns="http://www.w3.org/2000/svg">
<path d="M21.035 5.75705C21.945 6.84905 22.399 8.12305 22.399 9.57905C22.399 14.856 19.397 16.403 16.576 16.858C16.94 17.495 17.031 18.223 17.031 18.951V22.681C17.031 23.136 16.758 23.409 16.394 23.409C16.298 23.4104 16.2028 23.3925 16.1138 23.3564C16.0249 23.3203 15.9441 23.2667 15.8762 23.1988C15.8084 23.1309 15.7548 23.0502 15.7187 22.9612C15.6826 22.8723 15.6647 22.777 15.666 22.681V18.951C15.714 18.5697 15.6732 18.1824 15.5469 17.8194C15.4206 17.4563 15.2123 17.1274 14.938 16.858L15.393 15.675C18.214 15.311 21.126 14.401 21.126 9.48805C21.126 8.30505 20.671 7.21305 19.852 6.30305L19.67 5.57605C20.0161 4.7041 20.0479 3.7389 19.76 2.84605C19.306 2.93605 18.396 3.11905 16.85 4.21105L16.303 4.30105C14.1538 3.75531 11.9023 3.75531 9.75302 4.30105L9.20602 4.21105C7.57002 3.21005 6.66002 2.93705 6.20402 2.93705C5.93102 3.84705 5.93102 4.84705 6.29402 5.66705L6.11302 6.39405C5.20302 7.30405 4.74802 8.48705 4.74802 9.57905C4.74802 14.401 7.47802 15.402 10.48 15.766L10.844 16.949C10.298 17.495 10.025 18.223 10.116 18.951V22.772C10.1174 22.868 10.0995 22.9633 10.0633 23.0522C10.0272 23.1412 9.97367 23.2219 9.90579 23.2898C9.83792 23.3577 9.75713 23.4113 9.6682 23.4474C9.57927 23.4835 9.484 23.5014 9.38802 23.5C9.29205 23.5014 9.19678 23.4835 9.10784 23.4474C9.01891 23.4113 8.93812 23.3577 8.87025 23.2898C8.80238 23.2219 8.7488 23.1412 8.71269 23.0522C8.67659 22.9633 8.65867 22.868 8.66002 22.772V20.68C5.65802 21.317 4.47502 19.77 3.56502 18.588C3.11002 18.042 2.74602 17.587 2.29102 17.496C2.20102 17.405 1.92702 17.041 2.01802 16.677C2.10902 16.313 2.47302 16.04 2.83802 16.222C3.74802 16.404 4.29302 17.132 4.83802 17.769C5.65802 18.861 6.47702 19.861 8.93302 19.316V18.952C8.84302 18.224 9.02402 17.496 9.38802 16.859C6.65802 16.313 3.47402 14.766 3.47402 9.58005C3.47402 8.12405 3.92902 6.85005 4.83902 5.75805C4.56602 4.48505 4.65702 3.12005 5.11202 2.02805L5.56702 1.66405C5.74902 1.57305 7.02302 1.30005 9.66002 2.93705C11.8404 2.39112 14.1217 2.39112 16.302 2.93705C18.851 1.20805 20.216 1.48005 20.398 1.57205L20.853 1.93605C21.308 3.21005 21.399 4.48405 21.035 5.75705Z" fill="#8D8D8D"/>
</svg>
