<svg width="27" height="26" viewBox="0 0 27 26" fill="none" xmlns="http://www.w3.org/2000/svg">
<path d="M13.1641 3.49533e-07C6.70809 -0.000828924 1.20463 4.68128 0.17098 11.054C-0.862674 17.4267 2.87869 23.6083 9.00397 25.6482C9.66368 25.7669 9.89985 25.3619 9.89985 25.0136C9.89985 24.7009 9.8893 23.8723 9.88534 22.7705C6.22395 23.5622 5.45077 21.0052 5.45077 21.0052C5.20973 20.2095 4.69155 19.5265 3.99017 19.0801C2.80269 18.2634 4.08121 18.2819 4.08121 18.2819C4.92653 18.3978 5.67052 18.8986 6.09597 19.6382C6.45608 20.293 7.06278 20.7768 7.78127 20.9822C8.49975 21.1876 9.27051 21.0975 9.92228 20.732C9.98353 20.0644 10.2806 19.4404 10.7601 18.9719C7.83892 18.6408 4.76731 17.5113 4.76731 12.4672C4.7511 11.1626 5.23557 9.90131 6.12103 8.94303C5.72039 7.80742 5.76758 6.56181 6.25298 5.45976C6.25298 5.45976 7.35733 5.10483 9.87082 6.80689C12.0266 6.2158 14.3016 6.2158 16.4574 6.80689C18.9722 5.10352 20.0752 5.45976 20.0752 5.45976C20.5629 6.56129 20.6101 7.80776 20.2072 8.94303C21.0959 9.90123 21.5799 11.1658 21.5582 12.4725C21.5582 17.5298 18.484 18.6408 15.5522 18.9667C16.1847 19.6132 16.509 20.5003 16.4429 21.4023C16.4429 23.1624 16.427 24.5821 16.427 25.0136C16.427 25.3658 16.6619 25.7749 17.3335 25.6456C23.4562 23.6022 27.1935 17.4203 26.1578 11.0492C25.122 4.6782 19.6188 -0.00147666 13.1641 3.49533e-07Z" fill="white"/>
</svg>
